PathFileType        4      (X/Y/Z)      C:\Users\u0101727\OneDrive - KU Leuven\reference_data\TRC\gait_67.trc         																																																																																																																																																																																		
DataRate	CameraRate	NumFrames	NumMarkers	Units	OrigDataRate	OrigDataStartFrame	OrigNumFrames																																																																																																																																																																											
100	100	12	59	m	100	1	352																																																																																																																																																																											
Frame#	Time	LKNE			LTHI2			LANK			foot_l3			foot_l4			foot_l5			foot_l6			foot_l8			RKNE_med			Foot_r1			Foot_r3			RSHO			rad_l2			LW2			rad_r2			RW1			hum_r2			RW2			RH			LTIB1			foot_l1			foot_l2			LTHI3			LTIB3			LTIB2			RTIB2			Foot_r8			RELB			LH			LSHO			LELB			hum_l2			RTIB3			LW1			LTHI1			RANK_med			LANK_med			Foot_r2			RPSI			foot_l9			RTIB1			LPSI			Foot_r4			Foot_r5			Foot_r6			Foot_r7			Foot_r9			RANK			Foot_r10			LASI			RTHI3			LKNE_med			RTHI1			CLAV			RASI			RKNE			RTHI2			foot_l10			foot_l7		
		X1	Y1	Z1	X2	Y2	Z2	X3	Y3	Z3	X4	Y4	Z4	X5	Y5	Z5	X6	Y6	Z6	X7	Y7	Z7	X8	Y8	Z8	X9	Y9	Z9	X10	Y10	Z10	X11	Y11	Z11	X12	Y12	Z12	X13	Y13	Z13	X14	Y14	Z14	X15	Y15	Z15	X16	Y16	Z16	X17	Y17	Z17	X18	Y18	Z18	X19	Y19	Z19	X20	Y20	Z20	X21	Y21	Z21	X22	Y22	Z22	X23	Y23	Z23	X24	Y24	Z24	X25	Y25	Z25	X26	Y26	Z26	X27	Y27	Z27	X28	Y28	Z28	X29	Y29	Z29	X30	Y30	Z30	X31	Y31	Z31	X32	Y32	Z32	X33	Y33	Z33	X34	Y34	Z34	X35	Y35	Z35	X36	Y36	Z36	X37	Y37	Z37	X38	Y38	Z38	X39	Y39	Z39	X40	Y40	Z40	X41	Y41	Z41	X42	Y42	Z42	X43	Y43	Z43	X44	Y44	Z44	X45	Y45	Z45	X46	Y46	Z46	X47	Y47	Z47	X48	Y48	Z48	X49	Y49	Z49	X50	Y50	Z50	X51	Y51	Z51	X52	Y52	Z52	X53	Y53	Z53	X54	Y54	Z54	X55	Y55	Z55	X56	Y56	Z56	X57	Y57	Z57	X58	Y58	Z58	X59	Y59	Z59
1	0.01	-2.2621	0.45086	0.1234	-2.3255	0.65026	0.053267	-2.2614	0.055454	0.13825	-2.2541	0.027107	0.14677	-2.2169	0.015684	0.1409	-2.1431	0.019995	0.13575	-2.1236	0.030444	0.17759	-2.0927	0.032848	0.21426	-2.644	0.42207	0.26589	-2.9143	0.16616	0.3294	-2.8702	0.11293	0.28577	-2.3889	1.3324	0.41299	-2.5412	0.92513	-0.020982	-2.576	0.81114	-0.043263	-2.3755	0.91699	0.51336	-2.3014	0.85344	0.49405	NaN	NaN	NaN	NaN	NaN	NaN	NaN	NaN	NaN	NaN	NaN	NaN	NaN	NaN	NaN	NaN	NaN	NaN	NaN	NaN	NaN	NaN	NaN	NaN	NaN	NaN	NaN	NaN	NaN	NaN	NaN	NaN	NaN	NaN	NaN	NaN	NaN	NaN	NaN	NaN	NaN	NaN	NaN	NaN	NaN	NaN	NaN	NaN	NaN	NaN	NaN	NaN	NaN	NaN	NaN	NaN	NaN	NaN	NaN	NaN	NaN	NaN	NaN	NaN	NaN	NaN	NaN	NaN	NaN	NaN	NaN	NaN	NaN	NaN	NaN	NaN	NaN	NaN	NaN	NaN	NaN	NaN	NaN	NaN	NaN	NaN	NaN	NaN	NaN	NaN	NaN	NaN	NaN	NaN	NaN	NaN	NaN	NaN	NaN	NaN	NaN	NaN	NaN	NaN	NaN	NaN	NaN	NaN	NaN	NaN	NaN	NaN	NaN	NaN	NaN	NaN	NaN	NaN	NaN	NaN	NaN	NaN	NaN	NaN	NaN	NaN	NaN	NaN	NaN
2	0.02	-2.2511	0.45234	0.12192	-2.3115	0.65263	0.052714	-2.2585	0.054451	0.13717	-2.2518	0.025522	0.14638	-2.2155	0.01316	0.14016	-2.142	0.015396	0.13374	-2.1215	0.025685	0.17497	-2.0904	0.028186	0.21112	-2.6234	0.419	0.26544	-2.9006	0.17398	0.32938	-2.8593	0.11755	0.28669	-2.3756	1.334	0.41045	-2.5268	0.92511	-0.022535	-2.5622	0.8111	-0.044349	-2.365	0.91813	0.51204	-2.2913	0.85375	0.49344	-2.4193	1.1891	0.44992	-2.3458	0.83578	0.53179	-2.2886	0.80349	0.53398	NaN	NaN	NaN	NaN	NaN	NaN	NaN	NaN	NaN	NaN	NaN	NaN	NaN	NaN	NaN	NaN	NaN	NaN	NaN	NaN	NaN	NaN	NaN	NaN	NaN	NaN	NaN	NaN	NaN	NaN	NaN	NaN	NaN	NaN	NaN	NaN	NaN	NaN	NaN	NaN	NaN	NaN	NaN	NaN	NaN	NaN	NaN	NaN	NaN	NaN	NaN	NaN	NaN	NaN	NaN	NaN	NaN	NaN	NaN	NaN	NaN	NaN	NaN	NaN	NaN	NaN	NaN	NaN	NaN	NaN	NaN	NaN	NaN	NaN	NaN	NaN	NaN	NaN	NaN	NaN	NaN	NaN	NaN	NaN	NaN	NaN	NaN	NaN	NaN	NaN	NaN	NaN	NaN	NaN	NaN	NaN	NaN	NaN	NaN	NaN	NaN	NaN	NaN	NaN	NaN	NaN	NaN	NaN	NaN	NaN	NaN	NaN	NaN	NaN	NaN	NaN	NaN	NaN	NaN	NaN
3	0.03	-2.2402	0.45143	0.12044	-2.2973	0.65617	0.052387	-2.2561	0.053366	0.13639	-2.2501	0.024325	0.14579	-2.2148	0.011028	0.1389	-2.1404	0.010227	0.13302	-2.12	0.021219	0.17392	-2.0885	0.022863	0.20991	-2.6013	0.41478	0.26517	-2.8848	0.18156	0.32976	-2.8476	0.12344	0.28713	-2.3621	1.3358	0.40804	-2.512	0.92544	-0.024178	-2.5479	0.81134	-0.045705	-2.3546	0.91943	0.51067	-2.2815	0.85419	0.49305	NaN	NaN	NaN	-2.3366	0.83704	0.53068	-2.2791	0.80311	0.53325	-2.2246	0.25442	0.12935	NaN	NaN	NaN	NaN	NaN	NaN	NaN	NaN	NaN	NaN	NaN	NaN	NaN	NaN	NaN	NaN	NaN	NaN	NaN	NaN	NaN	NaN	NaN	NaN	NaN	NaN	NaN	NaN	NaN	NaN	NaN	NaN	NaN	NaN	NaN	NaN	NaN	NaN	NaN	NaN	NaN	NaN	NaN	NaN	NaN	NaN	NaN	NaN	NaN	NaN	NaN	NaN	NaN	NaN	NaN	NaN	NaN	NaN	NaN	NaN	NaN	NaN	NaN	NaN	NaN	NaN	NaN	NaN	NaN	NaN	NaN	NaN	NaN	NaN	NaN	NaN	NaN	NaN	NaN	NaN	NaN	NaN	NaN	NaN	NaN	NaN	NaN	NaN	NaN	NaN	NaN	NaN	NaN	NaN	NaN	NaN	NaN	NaN	NaN	NaN	NaN	NaN	NaN	NaN	NaN	NaN	NaN	NaN	NaN	NaN	NaN	NaN	NaN	NaN	NaN	NaN	NaN
4	0.04	-2.2305	0.44998	0.11911	NaN	NaN	NaN	-2.2541	0.052373	0.13603	-2.2492	0.023815	0.14564	-2.214	0.0096321	0.13879	-2.1395	0.0084245	0.13177	-2.1181	0.018304	0.17455	-2.0874	0.018613	0.21105	-2.5777	0.40956	0.26447	-2.8686	0.1904	0.33028	-2.8353	0.13013	0.28704	-2.349	1.3376	0.40565	-2.4969	0.9259	-0.025936	-2.533	0.81172	-0.047216	-2.3442	0.92066	0.50935	-2.2716	0.85444	0.49256	-2.3938	1.1932	0.44564	-2.3275	0.83805	0.52968	-2.271	0.80441	0.53359	-2.2189	0.2524	0.12836	-2.3156	0.036209	0.17497	-2.3191	0.0033177	0.17387	NaN	NaN	NaN	NaN	NaN	NaN	NaN	NaN	NaN	NaN	NaN	NaN	NaN	NaN	NaN	NaN	NaN	NaN	NaN	NaN	NaN	NaN	NaN	NaN	NaN	NaN	NaN	NaN	NaN	NaN	NaN	NaN	NaN	NaN	NaN	NaN	NaN	NaN	NaN	NaN	NaN	NaN	NaN	NaN	NaN	NaN	NaN	NaN	NaN	NaN	NaN	NaN	NaN	NaN	NaN	NaN	NaN	NaN	NaN	NaN	NaN	NaN	NaN	NaN	NaN	NaN	NaN	NaN	NaN	NaN	NaN	NaN	NaN	NaN	NaN	NaN	NaN	NaN	NaN	NaN	NaN	NaN	NaN	NaN	NaN	NaN	NaN	NaN	NaN	NaN	NaN	NaN	NaN	NaN	NaN	NaN	NaN	NaN	NaN	NaN	NaN	NaN	NaN	NaN	NaN	NaN	NaN	NaN	NaN	NaN	NaN
5	0.05	-2.2216	0.4487	0.11782	-2.2731	0.66203	0.055803	-2.2528	0.051707	0.13617	-2.2485	0.023495	0.14586	-2.2135	0.0092574	0.13905	-2.1389	0.0074284	0.13134	-2.1171	0.017354	0.17491	-2.0871	0.016561	0.21226	-2.5523	0.40383	0.26328	-2.8503	0.19971	0.33081	-2.8217	0.13775	0.28689	-2.3355	1.3392	0.40363	-2.4817	0.92659	-0.027781	-2.5174	0.81222	-0.048987	-2.3339	0.92195	0.50829	-2.2619	0.85465	0.49209	-2.3805	1.1952	0.44405	-2.3186	0.83895	0.52874	-2.2618	0.80461	0.53348	-2.2141	0.25051	0.12766	-2.3139	0.036209	0.17576	-2.3173	0.0041163	0.17414	-2.2319	0.62728	0.08472	-2.2393	0.2013	0.11436	NaN	NaN	NaN	NaN	NaN	NaN	NaN	NaN	NaN	NaN	NaN	NaN	NaN	NaN	NaN	NaN	NaN	NaN	NaN	NaN	NaN	NaN	NaN	NaN	NaN	NaN	NaN	NaN	NaN	NaN	NaN	NaN	NaN	NaN	NaN	NaN	NaN	NaN	NaN	NaN	NaN	NaN	NaN	NaN	NaN	NaN	NaN	NaN	NaN	NaN	NaN	NaN	NaN	NaN	NaN	NaN	NaN	NaN	NaN	NaN	NaN	NaN	NaN	NaN	NaN	NaN	NaN	NaN	NaN	NaN	NaN	NaN	NaN	NaN	NaN	NaN	NaN	NaN	NaN	NaN	NaN	NaN	NaN	NaN	NaN	NaN	NaN	NaN	NaN	NaN	NaN	NaN	NaN	NaN	NaN	NaN	NaN	NaN	NaN	NaN	NaN	NaN	NaN	NaN	NaN
6	0.06	-2.2131	0.44714	0.11717	-2.2594	0.66389	0.055185	-2.2524	0.051573	0.13618	-2.2483	0.023449	0.14566	-2.2133	0.0089022	0.13906	-2.1387	0.0067003	0.13025	-2.1164	0.016675	0.17475	-2.0865	0.014494	0.21235	NaN	NaN	NaN	-2.8302	0.20917	0.33053	-2.807	0.14622	0.28619	-2.323	1.3412	0.40143	-2.4664	0.92727	-0.029766	-2.5016	0.81294	-0.050899	-2.3236	0.92319	0.50731	-2.2522	0.85471	0.49153	NaN	NaN	NaN	-2.3095	0.84011	0.52798	-2.2533	0.80505	0.5334	-2.2093	0.24864	0.12795	-2.3133	0.036395	0.17595	-2.3177	0.0031377	0.17453	-2.2191	0.62855	0.085721	-2.2354	0.19995	0.11436	-2.2684	0.24658	0.093739	-2.6761	0.32934	0.3953	NaN	NaN	NaN	NaN	NaN	NaN	NaN	NaN	NaN	NaN	NaN	NaN	NaN	NaN	NaN	NaN	NaN	NaN	NaN	NaN	NaN	NaN	NaN	NaN	NaN	NaN	NaN	NaN	NaN	NaN	NaN	NaN	NaN	NaN	NaN	NaN	NaN	NaN	NaN	NaN	NaN	NaN	NaN	NaN	NaN	NaN	NaN	NaN	NaN	NaN	NaN	NaN	NaN	NaN	NaN	NaN	NaN	NaN	NaN	NaN	NaN	NaN	NaN	NaN	NaN	NaN	NaN	NaN	NaN	NaN	NaN	NaN	NaN	NaN	NaN	NaN	NaN	NaN	NaN	NaN	NaN	NaN	NaN	NaN	NaN	NaN	NaN	NaN	NaN	NaN	NaN	NaN	NaN	NaN	NaN	NaN	NaN	NaN	NaN
7	0.07	-2.206	0.44661	0.11637	-2.2468	0.66469	0.054037	-2.2515	0.051229	0.1364	-2.2482	0.023412	0.1458	-2.2131	0.0086454	0.13916	-2.1384	0.0059158	0.12967	-2.1159	0.016192	0.17441	-2.0859	0.013029	0.21208	NaN	NaN	NaN	-2.8081	0.21828	0.32945	-2.7898	0.15405	0.28501	-2.3106	1.343	0.3996	-2.451	0.92798	-0.031756	-2.4851	0.81333	-0.052883	-2.3134	0.92431	0.50653	-2.2426	0.85472	0.49128	-2.3552	1.1992	0.44094	-2.3004	0.84114	0.52751	-2.2446	0.80551	0.53359	-2.2049	0.24762	0.1285	-2.3132	0.036737	0.17574	NaN	NaN	NaN	-2.2072	0.62916	0.085646	-2.2314	0.19929	0.11471	NaN	NaN	NaN	-2.6499	0.33032	0.39414	-2.8023	0.049513	0.37563	NaN	NaN	NaN	NaN	NaN	NaN	NaN	NaN	NaN	NaN	NaN	NaN	NaN	NaN	NaN	NaN	NaN	NaN	NaN	NaN	NaN	NaN	NaN	NaN	NaN	NaN	NaN	NaN	NaN	NaN	NaN	NaN	NaN	NaN	NaN	NaN	NaN	NaN	NaN	NaN	NaN	NaN	NaN	NaN	NaN	NaN	NaN	NaN	NaN	NaN	NaN	NaN	NaN	NaN	NaN	NaN	NaN	NaN	NaN	NaN	NaN	NaN	NaN	NaN	NaN	NaN	NaN	NaN	NaN	NaN	NaN	NaN	NaN	NaN	NaN	NaN	NaN	NaN	NaN	NaN	NaN	NaN	NaN	NaN	NaN	NaN	NaN	NaN	NaN	NaN	NaN	NaN	NaN	NaN	NaN	NaN
8	0.08	-2.1987	0.44525	0.1159	-2.2359	0.6641	0.052694	-2.251	0.051039	0.13652	-2.248	0.023359	0.14585	-2.213	0.0084254	0.13934	-2.1383	0.0055312	0.12933	-2.1155	0.015923	0.17463	-2.0855	0.011794	0.21231	-2.4717	0.39006	0.25562	-2.7856	0.22678	0.3272	NaN	NaN	NaN	-2.2987	1.3448	0.39792	-2.4354	0.9287	-0.033804	-2.4681	0.81387	-0.054925	-2.303	0.92517	0.50579	-2.233	0.85476	0.491	-2.3411	1.1999	0.44029	-2.2912	0.84226	0.52717	-2.2359	0.80579	0.53345	-2.2008	0.24685	0.12885	-2.3129	0.036725	0.17578	NaN	NaN	NaN	-2.1968	0.62788	0.083796	-2.2282	0.19917	0.11459	NaN	NaN	NaN	NaN	NaN	NaN	-2.7882	0.059673	0.37721	-2.3836	1.054	0.46227	NaN	NaN	NaN	NaN	NaN	NaN	NaN	NaN	NaN	NaN	NaN	NaN	NaN	NaN	NaN	NaN	NaN	NaN	NaN	NaN	NaN	NaN	NaN	NaN	NaN	NaN	NaN	NaN	NaN	NaN	NaN	NaN	NaN	NaN	NaN	NaN	NaN	NaN	NaN	NaN	NaN	NaN	NaN	NaN	NaN	NaN	NaN	NaN	NaN	NaN	NaN	NaN	NaN	NaN	NaN	NaN	NaN	NaN	NaN	NaN	NaN	NaN	NaN	NaN	NaN	NaN	NaN	NaN	NaN	NaN	NaN	NaN	NaN	NaN	NaN	NaN	NaN	NaN	NaN	NaN	NaN	NaN	NaN	NaN	NaN	NaN	NaN	NaN	NaN	NaN	NaN	NaN	NaN
9	0.09	-2.1922	0.44459	0.11541	-2.2266	0.66239	0.051268	-2.2509	0.051124	0.13646	-2.2478	0.023231	0.14608	-2.2129	0.00834	0.13929	-2.138	0.0048141	0.12917	-2.1152	0.015622	0.17475	-2.0853	0.011081	0.21273	-2.4445	0.38736	0.25254	-2.7637	0.23466	0.32425	NaN	NaN	NaN	-2.2872	1.3462	0.39676	-2.4193	0.92941	-0.035817	-2.4508	0.81436	-0.057054	-2.2928	0.92626	0.50538	-2.2234	0.85459	0.49062	-2.3294	1.202	0.43925	-2.282	0.8433	0.52698	-2.2274	0.80642	0.53372	-2.197	0.24625	0.12872	-2.3128	0.036814	0.17569	NaN	NaN	NaN	-2.1882	0.62528	0.081406	-2.2251	0.19884	0.11461	-2.255	0.24621	0.092205	NaN	NaN	NaN	-2.7689	0.069244	0.37836	-2.3719	1.0556	0.46114	NaN	NaN	NaN	NaN	NaN	NaN	NaN	NaN	NaN	NaN	NaN	NaN	NaN	NaN	NaN	NaN	NaN	NaN	NaN	NaN	NaN	NaN	NaN	NaN	NaN	NaN	NaN	NaN	NaN	NaN	NaN	NaN	NaN	NaN	NaN	NaN	NaN	NaN	NaN	NaN	NaN	NaN	NaN	NaN	NaN	NaN	NaN	NaN	NaN	NaN	NaN	NaN	NaN	NaN	NaN	NaN	NaN	NaN	NaN	NaN	NaN	NaN	NaN	NaN	NaN	NaN	NaN	NaN	NaN	NaN	NaN	NaN	NaN	NaN	NaN	NaN	NaN	NaN	NaN	NaN	NaN	NaN	NaN	NaN	NaN	NaN	NaN	NaN	NaN	NaN	NaN	NaN	NaN
10	0.1	-2.1859	0.44352	0.11483	-2.2187	0.6599	0.049958	-2.2508	0.051211	0.13649	-2.2475	0.023124	0.14596	-2.2128	0.0081203	0.13932	-2.1381	0.004468	0.12884	-2.1151	0.015413	0.1746	-2.0852	0.01084	0.21249	-2.4174	0.38605	0.24981	-2.742	0.24174	0.32113	NaN	NaN	NaN	-2.2757	1.348	0.39551	-2.4031	0.93025	-0.037871	-2.433	0.81484	-0.059146	-2.2826	0.92727	0.505	-2.214	0.85485	0.49046	-2.3175	1.2035	0.4376	-2.2729	0.84437	0.52703	-2.2186	0.80655	0.53365	-2.1935	0.24557	0.12896	-2.3128	0.036936	0.17563	-2.317	0.0037517	0.17442	-2.181	0.62161	0.0792	-2.2224	0.19852	0.11456	-2.2509	0.24615	0.092006	NaN	NaN	NaN	-2.7448	0.077836	0.37964	-2.3602	1.0572	0.46009	NaN	NaN	NaN	NaN	NaN	NaN	NaN	NaN	NaN	NaN	NaN	NaN	NaN	NaN	NaN	NaN	NaN	NaN	NaN	NaN	NaN	NaN	NaN	NaN	NaN	NaN	NaN	NaN	NaN	NaN	NaN	NaN	NaN	NaN	NaN	NaN	NaN	NaN	NaN	NaN	NaN	NaN	NaN	NaN	NaN	NaN	NaN	NaN	NaN	NaN	NaN	NaN	NaN	NaN	NaN	NaN	NaN	NaN	NaN	NaN	NaN	NaN	NaN	NaN	NaN	NaN	NaN	NaN	NaN	NaN	NaN	NaN	NaN	NaN	NaN	NaN	NaN	NaN	NaN	NaN	NaN	NaN	NaN	NaN	NaN	NaN	NaN	NaN	NaN	NaN	NaN	NaN	NaN
11	0.11	-2.1802	0.44234	0.11441	-2.2121	0.65709	0.04813	-2.2506	0.051157	0.13655	-2.2477	0.023276	0.14587	-2.2128	0.0081317	0.13937	-2.1381	0.0042761	0.12864	-2.1149	0.01522	0.17457	-2.0852	0.010748	0.21271	NaN	NaN	NaN	-2.7193	0.24759	0.31828	-2.7034	0.17849	0.2796	-2.2642	1.3497	0.39439	-2.3868	0.93145	-0.040013	-2.4153	0.8157	-0.06126	-2.2724	0.92825	0.50458	-2.2049	0.85501	0.49044	-2.3062	1.2054	0.43644	-2.2639	0.84568	0.52712	-2.2102	0.8071	0.53375	-2.1907	0.24497	0.12855	-2.3126	0.037043	0.17557	NaN	NaN	NaN	-2.1749	0.61739	0.076508	-2.2201	0.19822	0.11449	-2.2483	0.24632	0.091459	NaN	NaN	NaN	-2.7172	0.085129	0.38059	-2.3487	1.0589	0.45914	-2.3894	0.7463	-0.065239	NaN	NaN	NaN	NaN	NaN	NaN	NaN	NaN	NaN	NaN	NaN	NaN	NaN	NaN	NaN	NaN	NaN	NaN	NaN	NaN	NaN	NaN	NaN	NaN	NaN	NaN	NaN	NaN	NaN	NaN	NaN	NaN	NaN	NaN	NaN	NaN	NaN	NaN	NaN	NaN	NaN	NaN	NaN	NaN	NaN	NaN	NaN	NaN	NaN	NaN	NaN	NaN	NaN	NaN	NaN	NaN	NaN	NaN	NaN	NaN	NaN	NaN	NaN	NaN	NaN	NaN	NaN	NaN	NaN	NaN	NaN	NaN	NaN	NaN	NaN	NaN	NaN	NaN	NaN	NaN	NaN	NaN	NaN	NaN	NaN	NaN	NaN	NaN	NaN	NaN
12	0.12	-2.1752	0.4414	0.11367	-2.206	0.65469	0.046911	-2.2505	0.051103	0.13668	-2.2476	0.023201	0.14613	-2.2128	0.0081552	0.13943	-2.1381	0.0042456	0.1285	-2.1148	0.015069	0.17463	-2.0851	0.010495	0.2128	NaN	NaN	NaN	-2.6945	0.25137	0.31586	NaN	NaN	NaN	-2.2531	1.3516	0.3934	-2.3701	0.93266	-0.041938	-2.3969	0.81643	-0.063308	-2.2627	0.92965	0.50433	-2.196	0.85545	0.4904	-2.2948	1.2066	0.43525	-2.2549	0.84699	0.5272	-2.2015	0.80753	0.53384	-2.188	0.24377	0.12838	-2.3126	0.037269	0.17562	NaN	NaN	NaN	-2.1689	0.61443	0.073365	-2.2181	0.19764	0.1146	-2.2459	0.24621	0.091516	NaN	NaN	NaN	-2.6875	0.090579	0.38054	-2.3374	1.0607	0.45827	-2.3693	0.7473	-0.066785	NaN	NaN	NaN	NaN	NaN	NaN	NaN	NaN	NaN	NaN	NaN	NaN	NaN	NaN	NaN	NaN	NaN	NaN	NaN	NaN	NaN	NaN	NaN	NaN	NaN	NaN	NaN	NaN	NaN	NaN	NaN	NaN	NaN	NaN	NaN	NaN	NaN	NaN	NaN	NaN	NaN	NaN	NaN	NaN	NaN	NaN	NaN	NaN	NaN	NaN	NaN	NaN	NaN	NaN	NaN	NaN	NaN	NaN	NaN	NaN	NaN	NaN	NaN	NaN	NaN	NaN	NaN	NaN	NaN	NaN	NaN	NaN	NaN	NaN	NaN	NaN	NaN	NaN	NaN	NaN	NaN	NaN	NaN	NaN	NaN	NaN	NaN	NaN	NaN	NaN
